<?xml version="1.0" encoding="UTF-8" standalone="no"?>
<!-- Created with Inkscape (http://www.inkscape.org/) -->

<svg
   xmlns:dc="http://purl.org/dc/elements/1.1/"
   xmlns:cc="http://creativecommons.org/ns#"
   xmlns:rdf="http://www.w3.org/1999/02/22-rdf-syntax-ns#"
   xmlns:svg="http://www.w3.org/2000/svg"
   xmlns="http://www.w3.org/2000/svg"
   xmlns:sodipodi="http://sodipodi.sourceforge.net/DTD/sodipodi-0.dtd"
   xmlns:inkscape="http://www.inkscape.org/namespaces/inkscape"
   width="1080"
   height="1080"
   id="svg2"
   sodipodi:version="0.32"
   inkscape:version="0.47 r22583"
   sodipodi:docname="New document 13"
   inkscape:output_extension="org.inkscape.output.svg.inkscape"
   version="1.0">
  <defs
     id="defs4">
    <inkscape:perspective
       sodipodi:type="inkscape:persp3d"
       inkscape:vp_x="0 : 526.18109 : 1"
       inkscape:vp_y="0 : 1000 : 0"
       inkscape:vp_z="744.09448 : 526.18109 : 1"
       inkscape:persp3d-origin="372.04724 : 350.78739 : 1"
       id="perspective10" />
    <inkscape:perspective
       id="perspective4475"
       inkscape:persp3d-origin="0.5 : 0.33333333 : 1"
       inkscape:vp_z="1 : 0.5 : 1"
       inkscape:vp_y="0 : 1000 : 0"
       inkscape:vp_x="0 : 0.5 : 1"
       sodipodi:type="inkscape:persp3d" />
  </defs>
  <sodipodi:namedview
     id="base"
     pagecolor="#ffffff"
     bordercolor="#666666"
     borderopacity="1.0"
     inkscape:pageopacity="0.0"
     inkscape:pageshadow="2"
     inkscape:zoom="0.35"
     inkscape:cx="375"
     inkscape:cy="471.42858"
     inkscape:document-units="in"
     inkscape:current-layer="layer1"
     showgrid="false"
     units="in" />
  <metadata
     id="metadata7">
    <rdf:RDF>
      <cc:Work
         rdf:about="">
        <dc:format>image/svg+xml</dc:format>
        <dc:type
           rdf:resource="http://purl.org/dc/dcmitype/StillImage" />
        <dc:creator>
          <cc:Agent>
            <dc:title>HeatherM</dc:title>
          </cc:Agent>
        </dc:creator>
        <dc:title></dc:title>
      </cc:Work>
    </rdf:RDF>
  </metadata>
  <g
     inkscape:label="Layer 1"
     inkscape:groupmode="layer"
     id="layer1">
    <path
       style="fill:#6699cb;fill-opacity:1;fill-rule:nonzero;stroke:none"
       d="m 299.45694,126.78635
        -20.3734,6.24911
        -7.7523,-2.8578
        -21.8135,18.58939
        6.9268,-23.69817 -8.9716,-0.33377
        -9.1303,29.89505
        -31.1943,18.01015 2.0433,-18.89805 4.7266,-8.18683 9.8201,-2.83247 1.0559,-15.97259 4.4265,-7.69648 13.2715,-3.80814 1.7979,-27.481919 -22.9264,15.270799 3.3603,13.42294 -4.4265,7.69646 -13.4042,8.86309 2.5284,9.94211 -3.8957,6.7476 -16.5014,11.93583 0.015,-35.49522 21.3287,-22.85948 -4.7777,-7.626359 -17.0787,17.889779 5.1817,-28.204189 -6.3198,-5.29067 -4.819,-20.77083 -4.7548,20.7847 -6.3304,5.26076 5.203,28.203949 -17.10553,-17.852569 -4.756,7.617019 21.33113,22.85357 -0.03,35.82887 -15.73673,-11.30938 -4.3575,-7.54765 2.457,-9.92984 -13.328,-8.89927 -4.4272,-7.66813 3.3269,-13.42974 -22.89,-15.262289 1.7324,27.477659 13.3342,3.81043 4.4272,7.66812 1.0028,16.01526 9.8681,2.81384 3.8477,6.66446 2.286,20.09203 -30.8538,-17.83728 -9.1263,-29.89999 -8.97444,0.3102 6.90804,23.74005 -21.82388,-18.60781 -7.72117,2.85191 -20.41758,-6.25142 15.61868,14.53565 1.42191,8.11852 27.01642,9.61459 -24.03231,5.84557 4.21573,7.95084 30.4613,-7.04148 30.9174,17.85362 -17.5373,7.82352 -8.4354,-9.1e-4 -7.363,-7.09732 -14.3608,7.11348 -8.87852,-0.0134 -9.96145,-9.55828 -24.6712,12.15627 24.68212,12.24701 9.95065,-9.65268 8.87852,0.0134 14.34368,7.13524 7.38,-7.15145 7.5444,0.0337 18.517,8.15165 -31.0338,17.91743 -30.45504,-7.0405 -4.19674,7.93648 23.98662,5.85028 -27.00563,9.59638 -1.40124,8.14264 -15.59858,14.51934 20.37349,-6.24899 7.75228,2.85772 21.81356,-18.58935 -6.92691,23.69811 8.97169,0.33389 9.1302,-29.89505 30.8733,-17.82472 -2.1356,20.12898 -3.7092,6.42378 -9.8198,2.83262 -1.0328,16.01279 -4.4508,7.65564 -13.2714,3.80819 -1.7582,27.45853 22.9097,-15.20739 -3.3836,-13.46313 4.4508,-7.65565 13.3812,-8.9031 -2.5283,-9.94215 4.3884,-7.56529 15.46353,-11.22981 -8e-4,35.97245 -21.32863,22.8596 4.7546,7.58629 17.10163,-17.84971 -5.2048,28.16402 6.3431,5.33086 4.7557,20.75386 4.8181,-20.7677 6.3072,-5.30095 -5.1798,-28.16383 17.0825,17.81253 4.7788,-7.57707 -21.3309,-22.85347 -0.015,-35.80558 15.8354,11.5733 4.1955,7.26673 -2.4571,9.92976 13.328,8.89924 4.4273,7.66825 -3.3271,13.4296 22.89,15.26233 -1.7323,-27.47767 -13.3341,-3.81031 -4.4274,-7.66826 -1.0028,-16.01526 -9.868,-2.81373 -4.1261,-7.14639 -2.244,-19.7414 31.1936,17.96233 9.1262,29.89998 8.9514,-0.35028 -6.8849,-23.69998 21.8006,18.56767 7.7444,-2.8117 20.3543,6.23446 -15.5554,-14.51876 -1.4451,-8.15866 -26.9932,-9.57438 24.0091,-5.88573 -4.1926,-7.91076 -30.4613,7.04145 -31.2396,-18.04304 17.8586,-8.00893 8.9761,0.0104 7.3629,7.09727 14.3839,-7.07342 8.8552,-0.0274 9.9848,9.59849 24.6479,-12.19641 -24.6819,-12.24693 -9.9508,9.65259 -8.8553,0.0273 -14.367,-7.17537 -7.38,7.15148 -8.7458,0.0177 -17.9177,-7.85528 31.0338,-17.91744 30.455,7.04047 4.1967,-7.93655 -23.9865,-5.85026 27.0055,-9.59645 1.4014,-8.14247 15.5985,-14.51949 -6e-4,10e-4 0,0 0,-0.003 z m -21.8802,12.63262 -0.8972,5.12167 -20.2943,7.22049 -0.092,-0.16063 16.4003,-13.9652 4.884,1.78367 -8e-4,0 z m -40.1169,-39.842919 -0.6591,10.818809 -6.696,1.93887 -1.6516,-6.75477 9.0067,-6.002909 z m 54.5465,94.570129 -9.6788,4.83853 -4.9838,-4.83092 4.9869,-4.80622 9.6757,4.79861 z m -105.4584,-106.233549 -3.9021,21.148899 -0.1667,-0.0104 -3.9064,-21.137119 3.9927,-3.37582 3.9827,3.37481 -2e-4,2e-5 0,-4e-4 z m 90.1434,156.132879 0.9083,5.09639 -4.8969,1.80995 -16.375,-13.9917 0.07,-0.1515 20.2897,7.23523 1e-4,-3.7e-4 0,0 0,0.001 z m -76.5252,-80.81001 -2.0373,19.00154 -13.0077,7.51003 0,-15.47344 15.039,-11.03813 0,0 z m 17.8942,30.99377 -17.2626,7.55765 -13.0175,-7.52597 13.1282,-7.57953 17.1516,7.54835 3e-4,-5e-4 z m -38.1998,-19.80581 0,15.30683 -13.1902,-7.64074 -2.10803,-18.85657 15.29333,11.19042 -2e-4,6e-5 0,0 z m 18.2608,31.90639 2.1356,18.62641 -15.1141,-10.97285 -0.015,-15.13983 12.9938,7.4866 3e-4,-3.3e-4 -7e-4,0 z m -61.14013,-100.61283 -1.672,6.74654 -6.6787,-1.92528 -0.6691,-10.801419 9.0198,5.980159 z m 99.44453,172.33551 0.669,10.80135 -9.0197,-5.98011 1.672,-6.74658 6.6787,1.92534 z m -59.1331,-83.7856 -13.12823,7.57952 -17.388,-7.67953 17.2625,-7.55764 13.25393,7.65725 -2e-4,4e-4 z m 2.5792,4.55971 0,15.20323 -15.23993,11.15396 1.99253,-18.70814 13.2488,-7.64905 z m -71.06291,-47.2424 -0.0743,0.14959 -20.30669,-7.17192 -0.89123,-5.15959 4.87977,-1.74676 16.39223,13.92844 3e-4,2.4e-4 -6e-5,0 z m 73.84861,127.90938 3.8894,21.20044 -3.9757,3.31257 -3.9997,-3.31158 3.9192,-21.21218 0.1663,0.0104 5e-4,5.8e-4 0,-2.1e-4 z m -73.94603,-42.6876 0.0927,0.1606 -16.40028,13.96519 -4.88407,-1.7839 0.89728,-5.12143 20.29436,-7.22046 z m -20.33315,-42.70049 -4.98692,4.80626 -9.69893,-4.83861 9.70202,-4.79852 4.98383,4.83087 z m 47.23895,81.82024 1.6515,6.7547 -9.0297,5.96281 0.6822,-10.77872 6.696,-1.93879 z"
       id="path4320"
       sodipodi:nodetypes="ccccccccccccccccccccccccccccccccccccccccccccccccccccccccccccccccccccccccccccccccccccccccccccccccccccccccccccccccccccccccccccccccccccccccccccccccccccccccccccccccccccccccccccccccccccccccccccccccccccccccccccccccccccccccccccccccccccccccccccccccccccccccccccccccccccccccccccccccccccccccccccc" />
  </g>
</svg>
